<svg xmlns="http://www.w3.org/2000/svg" width="29" height="27.068" viewBox="0 0 29 27.068">
    <path d="M14.5 0 29 5.8v1.933h-1.933a.9.9 0 0 1-.309.68 1.039 1.039 0 0 1-.732.288H2.976a1.039 1.039 0 0 1-.732-.288.9.9 0 0 1-.311-.68H0V5.8zM3.867 9.667h3.866v11.6h1.934v-11.6h3.867v11.6h1.933v-11.6h3.867v11.6h1.933v-11.6h3.867v11.6h.892a1.039 1.039 0 0 1 .732.288.9.9 0 0 1 .309.68v.965H1.933v-.967a.9.9 0 0 1 .309-.68 1.039 1.039 0 0 1 .732-.288h.892zm24.092 14.5a1.039 1.039 0 0 1 .732.288.9.9 0 0 1 .309.68v1.933H0v-1.933a.9.9 0 0 1 .309-.68 1.039 1.039 0 0 1 .732-.288h26.916z" />
</svg>
