<svg xmlns="http://www.w3.org/2000/svg" width="27" height="21" viewBox="0 0 27 21">
    <path data-name="Icon awesome-credit-card" d="M0 20.25a2.251 2.251 0 0 0 2.25 2.25h22.5A2.251 2.251 0 0 0 27 20.25V12H0zm9-3.187a.564.564 0 0 1 .563-.562h6.375a.564.564 0 0 1 .563.563v1.875a.564.564 0 0 1-.562.563H9.563A.564.564 0 0 1 9 18.938zm-6 0a.564.564 0 0 1 .563-.562h3.375a.564.564 0 0 1 .563.563v1.875a.564.564 0 0 1-.562.563H3.563A.564.564 0 0 1 3 18.938zM27 3.75V6H0V3.75A2.251 2.251 0 0 1 2.25 1.5h22.5A2.251 2.251 0 0 1 27 3.75z" transform="translate(0 -1.5)"/>
</svg>
