<svg data-name="Icon ionic-md-wallet" xmlns="http://www.w3.org/2000/svg" width="27" height="24.923" viewBox="0 0 27 24.923">
    <path data-name="Path 25423" d="M12.291 21V9.925a2.77 2.77 0 0 1 2.771-2.771h12.786V5.771A2.76 2.76 0 0 0 25.1 3h-20a2.805 2.805 0 0 0-2.85 2.726V25.2a2.805 2.805 0 0 0 2.856 2.726H25.1a2.756 2.756 0 0 0 2.745-2.771v-1.386H15.056A2.769 2.769 0 0 1 12.291 21z" transform="translate(-2.25 -3)"/>
    <path data-name="Path 25424" d="M11.484 9.007v9.087a1.042 1.042 0 0 0 1.038 1.038H24.66a1.042 1.042 0 0 0 1.04-1.038V9.007a1.042 1.042 0 0 0-1.04-1.038H12.523a1.042 1.042 0 0 0-1.039 1.038zm5 6.614a2.078 2.078 0 1 1 1.941-1.941 2.078 2.078 0 0 1-1.937 1.941z" transform="translate(1.302 -1.089)" />
</svg>
