<svg xmlns="http://www.w3.org/2000/svg" width="72.689" height="46.038" viewBox="0 0 72.689 46.038">
    <path d="m19.069 0-.506.085a9.17 9.17 0 0 0-4.382 1.751 7.416 7.416 0 0 0-.819.625.394.394 0 0 1-.057-.17c-.058-.313-.086-.648-.142-.961a.806.806 0 0 0-.875-.767h-1.33c-.819 0-.961.173-.961.965v24.534a.589.589 0 0 0 .563.591h2.461c.339 0 .537-.223.563-.591a1.352 1.352 0 0 0 .028-.341V17.2c.114.114.2.171.256.227A8.084 8.084 0 0 0 20.91 19.2a7.019 7.019 0 0 0 5.059-4.042 11.173 11.173 0 0 0 1.183-5.031 12.627 12.627 0 0 0-.932-5.665A6.77 6.77 0 0 0 21.161.2c-.368-.085-.763-.115-1.131-.17-.339-.03-.65-.03-.961-.03zm18.83 0a1.356 1.356 0 0 1-.336.057 16.684 16.684 0 0 0-3.336.478c-.708.17-1.385.423-2.063.648a.865.865 0 0 0-.625.9c.029.368 0 .763 0 1.131.029.565.257.711.8.568.9-.225 1.808-.479 2.712-.648a13.668 13.668 0 0 1 4.3-.17 2.847 2.847 0 0 1 1.95.989 3.239 3.239 0 0 1 .625 1.893c.029.962.028 1.724.028 2.683 0 .056 0 .11-.028.137h-.142a20.64 20.64 0 0 0-3.7-.563 9.841 9.841 0 0 0-3.843.454 5.587 5.587 0 0 0-3.422 2.882 6.078 6.078 0 0 0-.454 3.535 4.768 4.768 0 0 0 2.489 3.673 6.726 6.726 0 0 0 4.382.62 9.268 9.268 0 0 0 4.662-2.12c.056-.056.115-.081.17-.137.085.453.142.878.227 1.273a.668.668 0 0 0 .625.62h1.893a.562.562 0 0 0 .539-.563 1.047 1.047 0 0 0 .029-.312V5.968a9.4 9.4 0 0 0-.123-1.472A4.591 4.591 0 0 0 43.053.961 6.9 6.9 0 0 0 40.54.142C40.116.084 39.719.056 39.295 0zm9.8 0c-.283 0-.425.251-.369.535a6.519 6.519 0 0 0 .227.71q3.391 8.4 6.839 16.815a1.529 1.529 0 0 1 0 1.358c-.366.846-.679 1.722-1.074 2.57a2.612 2.612 0 0 1-1.751 1.557 4.668 4.668 0 0 1-1.779.113c-.283-.029-.568-.085-.852-.113-.4-.029-.591.139-.62.563v1.136c.029.652.226.932.875 1.046a14.572 14.572 0 0 0 1.95.222 4.864 4.864 0 0 0 4.554-2.48 14.877 14.877 0 0 0 1.074-2.12 4648.2 4648.2 0 0 0 8.168-20.776 2.3 2.3 0 0 0 .166-.625c.056-.339-.113-.506-.421-.5h-2.287a.913.913 0 0 0-.9.592c-.056.17-.115.308-.171.478l-4.043 11.56c-.283.819-.6 1.666-.88 2.57-.058-.143-.085-.2-.114-.284-1.5-4.126-2.965-8.249-4.463-12.376a39.995 39.995 0 0 0-.733-1.983.762.762 0 0 0-.738-.535C49.479 0 48.605 0 47.699 0zm-28.66 2.934a4.217 4.217 0 0 1 3.871 3 10.548 10.548 0 0 1 .568 3.743 10.966 10.966 0 0 1-.449 3.45 4.485 4.485 0 0 1-4.922 3.308 8.186 8.186 0 0 1-4.326-1.614.361.361 0 0 1-.2-.364v-9.6a.38.38 0 0 1 .2-.393 8 8 0 0 1 5.26-1.525zm18.34 7.638a7.1 7.1 0 0 1 1.453.024c.962.085 1.925.252 2.887.393.2.029.251.114.251.284-.029.567 0 1.1 0 1.671s-.029 1.075-.029 1.642a.338.338 0 0 1-.17.336 8.931 8.931 0 0 1-4.325 1.727 4.051 4.051 0 0 1-1.921-.2 2.327 2.327 0 0 1-1.439-1.557 4.025 4.025 0 0 1-.029-2.234 2.757 2.757 0 0 1 1.893-1.808 7.027 7.027 0 0 1 1.429-.278zm30.563 18.509a12.683 12.683 0 0 0-6.957 1.959c-.625.434-.516 1.036.18.956 2.278-.274 7.347-.889 8.254.27s-1 5.936-1.85 8.074c-.262.637.291.9.875.417 3.79-3.174 4.774-9.828 4-10.785-.39-.48-2.245-.922-4.502-.891zM.523 31.5c-.528.073-.756.742-.2 1.273 9.491 8.9 22.032 13.261 35.958 13.261 9.932 0 21.462-3.241 29.422-9.347 1.316-1.015.2-2.536-1.155-1.936a69.165 69.165 0 0 1-27.439 5.835c-13.075 0-25.732-2.73-35.972-8.93a.943.943 0 0 0-.614-.156z"/>
</svg>
