<svg xmlns="http://www.w3.org/2000/svg" width="100.81" height="40.045" viewBox="0 0 100.81 40.045">
    <path data-name="Path 25433" d="M194.822 27.242v11.745H191.1V9.994h9.872a8.975 8.975 0 0 1 6.4 2.52 7.992 7.992 0 0 1 2.659 6.1 8.089 8.089 0 0 1-2.659 6.15A8.942 8.942 0 0 1 201 27.242zm0-13.687v10.127h6.242a4.867 4.867 0 0 0 3.676-1.5 4.933 4.933 0 0 0 .092-6.982l-.092-.092a4.805 4.805 0 0 0-3.676-1.526l-6.242-.023zm23.791 4.945a9.307 9.307 0 0 1 6.52 2.2 7.839 7.839 0 0 1 2.381 6.058v12.206h-3.561v-2.751h-.162a7.111 7.111 0 0 1-6.15 3.4 7.984 7.984 0 0 1-5.48-1.942 6.131 6.131 0 0 1-2.2-4.855 5.923 5.923 0 0 1 2.335-4.9 9.759 9.759 0 0 1 6.219-1.827 11.214 11.214 0 0 1 5.456 1.2v-.855a4.264 4.264 0 0 0-1.526-3.283 5.41 5.41 0 0 0-3.584-1.364 5.73 5.73 0 0 0-4.948 2.636l-3.283-2.058a9.077 9.077 0 0 1 7.977-3.861zm-4.809 14.4a3 3 0 0 0 1.225 2.428 4.546 4.546 0 0 0 2.89.971 5.915 5.915 0 0 0 4.185-1.734 5.459 5.459 0 0 0 1.85-4.092 7.586 7.586 0 0 0-4.855-1.387 6.442 6.442 0 0 0-3.792 1.087 3.3 3.3 0 0 0-1.507 2.734zm34.149-13.75-12.439 28.577h-3.838l4.624-9.988-8.185-18.566h4.046l5.9 14.242h.092l5.757-14.242z" transform="translate(-147.142 -7.681)" style="fill:#5f6368"/>
    <path data-name="Path 25434" d="M88.976 62.376A20.568 20.568 0 0 0 88.7 59H73v6.4h8.994a7.709 7.709 0 0 1-3.329 5.063v4.162h5.364a16.24 16.24 0 0 0 4.947-12.249z" transform="translate(-56.348 -45.358)" style="fill:#4285f4"/>
    <path data-name="Path 25435" d="M23.566 99.256a15.923 15.923 0 0 0 11.028-4.023l-5.364-4.162A10.084 10.084 0 0 1 14.226 85.8H8.7v4.3a16.67 16.67 0 0 0 14.866 9.156z" transform="translate(-6.914 -65.962)" style="fill:#34a853"/>
    <path data-name="Path 25436" d="M8.287 50.358a10.045 10.045 0 0 1 0-6.381V39.7H2.761a16.506 16.506 0 0 0 0 14.936z" transform="translate(-.975 -30.52)" style="fill:#fbbc04"/>
    <path data-name="Path 25437" d="M23.566 6.586a8.959 8.959 0 0 1 6.381 2.5l4.74-4.74A15.891 15.891 0 0 0 23.566 0 16.649 16.649 0 0 0 8.7 9.175l5.526 4.3a9.951 9.951 0 0 1 9.34-6.889z" transform="translate(-6.914 .004)" style="fill:#ea4335"/>
</svg>
