<svg xmlns="http://www.w3.org/2000/svg" width="60.277" height="60.277" viewBox="0 0 60.277 60.277">
    <path data-name="Path 25438" d="M37.075.816a30.132 30.132 0 1 0 22.4 36.254A30.132 30.132 0 0 0 37.075.816z" transform="translate(-.012 -.002)" style="fill:#5f259f"/>
    <path data-name="Path 25439" d="M59.61 30.929a2.227 2.227 0 0 0-2.188-2.163h-4.043l-9.257-10.631a3.434 3.434 0 0 0-3.537-1.011l-3.208 1.011a.746.746 0 0 0-.339 1.177l10.111 9.6H31.833a.8.8 0 0 0-.834.839v1.683a2.227 2.227 0 0 0 2.188 2.188h2.36V41.7c0 6.059 3.2 9.6 8.585 9.6a11.607 11.607 0 0 0 4.715-.844v5.4a2.659 2.659 0 0 0 2.693 2.693h2.355a1.089 1.089 0 0 0 1.011-1.011V33.456h3.861a.8.8 0 0 0 .844-.844zM48.817 45.406a8.036 8.036 0 0 1-3.37.672c-2.693 0-4.037-1.344-4.037-4.376v-8.08h7.408V45.4z" transform="translate(-15.797 -8.653)" style="fill:#fff"/>
</svg>
